<svg xmlns="http://www.w3.org/2000/svg" xmlns:v="https://svgstorm.com"
viewBox = "0 0 661 803"
width="661"
height="803">
<g fill="#000000" fill-opacity="1.00" stroke="None">
<path d="
M 0.00 803.00 
L 661.00 803.00
L 661.00 0.00
L 0.00 0.00
L 0.00 803.00
M 240.00 59.00 
C 254.25 60.72 266.94 68.28 273.75 83.25 C 280.57 98.22 275.88 121.22 277.00 139.00 C 278.12 156.78 276.27 179.57 277.00 198.00 C 277.73 216.43 276.18 238.76 277.00 257.00 C 277.82 275.24 275.54 298.89 277.00 316.00 C 278.46 333.11 273.03 355.55 283.77 368.23 C 294.51 380.91 309.23 385.43 326.00 385.00 C 342.77 384.57 365.70 383.93 384.00 384.00 C 402.30 384.07 423.22 384.87 442.00 384.00 C 460.78 383.13 481.36 386.40 500.00 385.00 C 518.64 383.60 529.26 390.65 538.77 405.23 C 548.28 419.81 545.17 435.65 552.32 450.68 C 559.47 465.70 559.17 482.63 563.98 498.02 C 568.79 513.41 576.76 526.63 578.00 543.00 C 579.24 559.38 592.77 570.35 592.93 587.07 C 593.08 603.80 603.71 616.81 605.99 633.01 C 608.27 649.21 612.70 664.55 617.93 680.07 C 623.15 695.60 625.11 714.89 624.00 732.00 C 622.89 749.11 610.17 756.67 593.98 760.98 C 577.78 765.28 555.12 762.02 537.00 763.00 C 518.88 763.98 496.43 761.79 478.00 763.00 C 459.57 764.21 443.56 762.30 428.31 753.69 C 413.05 745.09 415.11 729.64 407.23 715.77 C 399.35 701.90 405.40 681.53 395.68 668.32 C 385.96 655.11 389.27 636.93 382.01 622.99 C 374.75 609.06 371.11 593.62 367.22 578.78 C 363.34 563.94 357.09 548.49 354.02 533.98 C 350.96 519.47 340.70 505.86 325.98 503.02 C 311.25 500.18 292.49 505.96 285.25 521.25 C 278.00 536.53 279.83 557.12 280.00 575.00 C 280.17 592.88 282.05 614.79 281.00 633.00 C 279.95 651.21 282.60 674.67 281.00 692.00 C 279.40 709.33 285.89 732.20 275.69 745.69 C 265.50 759.19 250.19 761.02 234.00 763.00 C 217.81 764.98 193.55 762.06 176.00 763.00 C 158.45 763.94 134.57 762.43 117.00 763.00 C 99.43 763.57 84.18 761.96 71.75 749.25 C 59.32 736.54 58.83 721.23 59.00 703.00 C 59.17 684.77 58.92 663.01 59.00 644.00 C 59.08 624.99 58.96 604.36 59.00 585.00 C 59.04 565.64 58.99 545.51 59.00 526.00 C 59.01 506.49 59.00 486.56 59.00 467.00 C 59.00 447.44 59.00 427.53 59.00 408.00 C 59.00 388.47 59.01 369.52 59.00 350.00 C 58.99 330.48 59.03 310.52 59.00 291.00 C 58.97 271.48 59.06 251.42 59.00 232.00 C 58.94 212.58 59.14 192.16 59.00 173.00 C 58.86 153.84 59.32 132.55 59.00 114.00 C 58.68 95.45 60.75 82.38 72.92 68.92 C 85.09 55.45 103.97 59.06 122.00 59.00 C 140.03 58.94 162.29 58.17 181.00 59.00 C 199.71 59.83 221.25 56.73 240.00 59.00
M 490.00 137.00 
C 514.96 139.31 517.32 166.75 517.00 188.00 C 516.68 209.25 517.29 244.76 517.00 266.00 C 516.71 287.24 524.54 318.01 503.92 329.92 C 483.31 341.84 455.11 334.72 432.00 336.00 C 408.89 337.28 375.54 336.42 354.00 335.00 C 332.46 333.59 319.35 305.58 327.98 288.98 C 336.60 272.37 353.43 262.01 365.25 248.25 C 377.06 234.48 391.02 221.38 403.75 207.75 C 416.49 194.12 429.05 181.12 442.23 168.23 C 455.41 155.34 468.14 134.97 490.00 137.00 Z"/>
</g>
<g fill="#FFFFFF" fill-opacity="1.00" stroke="None">
<path d="
M 240.00 59.00 
C 221.25 56.73 199.71 59.83 181.00 59.00 C 162.29 58.17 140.03 58.94 122.00 59.00 C 103.97 59.06 85.09 55.45 72.92 68.92 C 60.75 82.38 58.68 95.45 59.00 114.00 C 59.32 132.55 58.86 153.84 59.00 173.00 C 59.14 192.16 58.94 212.58 59.00 232.00 C 59.06 251.42 58.97 271.48 59.00 291.00 C 59.03 310.52 58.99 330.48 59.00 350.00 C 59.01 369.52 59.00 388.47 59.00 408.00 C 59.00 427.53 59.00 447.44 59.00 467.00 C 59.00 486.56 59.01 506.49 59.00 526.00 C 58.99 545.51 59.04 565.64 59.00 585.00 C 58.96 604.36 59.08 624.99 59.00 644.00 C 58.92 663.01 59.17 684.77 59.00 703.00 C 58.83 721.23 59.32 736.54 71.75 749.25 C 84.18 761.96 99.43 763.57 117.00 763.00 C 134.57 762.43 158.45 763.94 176.00 763.00 C 193.55 762.06 217.81 764.98 234.00 763.00 C 250.19 761.02 265.50 759.19 275.69 745.69 C 285.89 732.20 279.40 709.33 281.00 692.00 C 282.60 674.67 279.95 651.21 281.00 633.00 C 282.05 614.79 280.17 592.88 280.00 575.00 C 279.83 557.12 278.00 536.53 285.25 521.25 C 292.49 505.96 311.25 500.18 325.98 503.02 C 340.70 505.86 350.96 519.47 354.02 533.98 C 357.09 548.49 363.34 563.94 367.22 578.78 C 371.11 593.62 374.75 609.06 382.01 622.99 C 389.27 636.93 385.96 655.11 395.68 668.32 C 405.40 681.53 399.35 701.90 407.23 715.77 C 415.11 729.64 413.05 745.09 428.31 753.69 C 443.56 762.30 459.57 764.21 478.00 763.00 C 496.43 761.79 518.88 763.98 537.00 763.00 C 555.12 762.02 577.78 765.28 593.98 760.98 C 610.17 756.67 622.89 749.11 624.00 732.00 C 625.11 714.89 623.15 695.60 617.93 680.07 C 612.70 664.55 608.27 649.21 605.99 633.01 C 603.71 616.81 593.08 603.80 592.93 587.07 C 592.77 570.35 579.24 559.38 578.00 543.00 C 576.76 526.63 568.79 513.41 563.98 498.02 C 559.17 482.63 559.47 465.70 552.32 450.68 C 545.17 435.65 548.28 419.81 538.77 405.23 C 529.26 390.65 518.64 383.60 500.00 385.00 C 481.36 386.40 460.78 383.13 442.00 384.00 C 423.22 384.87 402.30 384.07 384.00 384.00 C 365.70 383.93 342.77 384.57 326.00 385.00 C 309.23 385.43 294.51 380.91 283.77 368.23 C 273.03 355.55 278.46 333.11 277.00 316.00 C 275.54 298.89 277.82 275.24 277.00 257.00 C 276.18 238.76 277.73 216.43 277.00 198.00 C 276.27 179.57 278.12 156.78 277.00 139.00 C 275.88 121.22 280.57 98.22 273.75 83.25 C 266.94 68.28 254.25 60.72 240.00 59.00 Z"/>
</g>
<g fill="#FFFFFF" fill-opacity="1.00" stroke="None">
<path d="
M 490.00 137.00 
C 468.14 134.97 455.41 155.34 442.23 168.23 C 429.05 181.12 416.49 194.12 403.75 207.75 C 391.02 221.38 377.06 234.48 365.25 248.25 C 353.43 262.01 336.60 272.37 327.98 288.98 C 319.35 305.58 332.46 333.59 354.00 335.00 C 375.54 336.42 408.89 337.28 432.00 336.00 C 455.11 334.72 483.31 341.84 503.92 329.92 C 524.54 318.01 516.71 287.24 517.00 266.00 C 517.29 244.76 516.68 209.25 517.00 188.00 C 517.32 166.75 514.96 139.31 490.00 137.00 Z"/>
</g>
</svg>