<svg version="1.1" id="Layer_1" xmlns="http://www.w3.org/2000/svg" xmlns:xlink="http://www.w3.org/1999/xlink" x="0px" y="0px"
	 width="100%" viewBox="0 0 1476 550" enable-background="new 0 0 1476 550" xml:space="preserve">
<path fill="#000000" opacity="1.000000" stroke="none" 
	d="
M906.000000,551.000000 
	C604.037170,551.000000 302.574341,551.000000 1.055745,551.000000 
	C1.055745,367.726440 1.055745,184.452866 1.055745,1.089643 
	C492.879578,1.089643 984.759216,1.089643 1476.819336,1.089643 
	C1476.819336,184.333191 1476.819336,367.666565 1476.819336,551.000000 
	C1286.786011,551.000000 1096.643066,551.000000 906.000000,551.000000 
M103.699860,416.003662 
	C104.835800,415.904510 105.971748,415.805328 107.891129,415.740631 
	C109.196777,415.704926 110.502426,415.669250 112.726570,415.935364 
	C136.264526,415.667542 159.803040,415.434692 183.339218,415.056671 
	C184.989685,415.030151 186.622894,413.929596 188.928223,413.087921 
	C197.267227,410.598175 199.366058,404.327362 199.320801,396.479004 
	C199.269882,387.651978 199.722168,378.822144 199.680405,369.994843 
	C199.572433,347.169861 199.106705,324.344818 199.189590,301.521301 
	C199.241318,287.281708 214.263092,277.622437 227.178314,283.877197 
	C231.562469,286.000427 235.301559,290.708405 237.803284,295.106689 
	C240.211655,299.340820 240.512085,304.739471 241.959579,309.560150 
	C251.598419,341.660980 261.274078,373.750854 270.998077,405.826019 
	C272.568542,411.006317 278.222290,414.887939 283.568848,414.869690 
	C301.896027,414.807098 320.223602,414.815948 338.550385,414.697784 
	C346.209503,414.648407 353.884003,414.601624 361.520172,414.087555 
	C368.421173,413.622955 371.723206,410.526276 373.006195,403.725006 
	C373.582611,400.669495 373.997131,397.330475 373.386017,394.345093 
	C369.552338,375.616394 366.103088,356.766418 361.193756,338.311157 
	C354.916016,314.711792 347.259888,291.482117 340.429626,268.025635 
	C336.541748,254.673874 334.809357,240.670639 327.207336,228.494125 
	C325.049164,225.037262 322.825775,223.837021 318.877533,223.856216 
	C285.387939,224.019073 251.897385,223.987549 218.407120,224.008942 
	C213.667938,224.011978 209.725464,223.334442 205.276703,220.196808 
	C198.770340,215.607956 196.744797,210.532761 196.726944,203.117935 
	C196.627014,161.631805 196.236710,120.146385 195.935486,78.660789 
	C195.920975,76.662743 195.944702,74.650307 195.721863,72.670319 
	C194.796295,64.445908 188.798920,58.899326 180.564835,58.884205 
	C154.583862,58.836494 128.602631,58.861980 102.621712,58.936455 
	C98.650475,58.947834 94.353821,58.762608 94.013466,64.639053 
	C93.966805,65.444649 92.577789,66.172508 91.032394,66.958992 
	C90.333405,69.686104 89.050316,72.408066 89.026215,75.141129 
	C88.797005,101.136299 88.714935,127.133362 88.716705,153.129868 
	C88.722282,234.785782 88.810783,316.441742 88.743515,398.097565 
	C88.739899,402.483856 90.202187,405.895966 93.231293,409.606903 
	C94.454399,410.437744 95.677513,411.268585 97.048401,412.731934 
	C98.002151,413.515350 98.955910,414.298767 100.441711,415.411407 
	C101.257050,415.508911 102.072388,415.606384 103.699860,416.003662 
M1080.045044,239.713516 
	C1083.149048,244.435120 1086.252930,249.156723 1089.662476,254.575226 
	C1097.723267,267.831482 1105.784058,281.087738 1113.941772,295.024780 
	C1118.393311,300.871979 1125.967407,301.063507 1130.186157,295.036163 
	C1133.489380,290.317017 1136.123291,285.129456 1139.600952,279.759674 
	C1140.451660,278.191681 1141.302490,276.623688 1142.724243,274.708923 
	C1143.834351,272.522522 1144.944336,270.336151 1146.594238,267.809082 
	C1147.063843,266.873077 1147.533569,265.937073 1148.493652,264.734741 
	C1148.697388,264.230621 1148.901001,263.726532 1149.691772,262.879364 
	C1150.529175,261.278564 1151.366455,259.677765 1152.770020,257.743317 
	C1153.558472,256.182312 1154.347046,254.621277 1155.709473,252.717072 
	C1157.187256,250.179260 1158.665039,247.641464 1160.024780,245.068451 
	C1160.024780,245.068451 1160.104004,245.162872 1160.694702,244.798828 
	C1162.707397,241.884216 1164.720093,238.969604 1166.978638,236.871338 
	C1167.605347,238.551880 1168.836426,240.264679 1168.748779,241.907120 
	C1168.447754,247.550964 1167.592407,253.162735 1167.139160,258.802063 
	C1166.927856,261.431335 1167.010864,264.106720 1167.210815,266.742249 
	C1167.745605,273.793091 1168.672119,280.823212 1168.961792,287.881287 
	C1169.267212,295.325317 1169.117188,302.794373 1168.955933,310.247925 
	C1168.895630,313.038940 1169.902344,314.261383 1173.614380,314.248138 
	C1179.603027,314.236145 1185.603271,313.994995 1191.575928,314.297668 
	C1195.186035,314.480652 1196.032471,313.299927 1196.018066,309.811981 
	C1195.849243,269.215973 1195.840088,228.619278 1195.789307,188.022766 
	C1195.786377,185.737900 1195.788940,183.453049 1195.788940,180.141083 
	C1190.254028,180.141083 1185.132690,180.374252 1180.045654,180.057098 
	C1176.786499,179.853912 1174.834473,180.853851 1173.185425,183.675568 
	C1162.420410,202.095642 1151.458862,220.400925 1140.685303,238.816162 
	C1134.659180,249.116699 1128.870728,259.556305 1122.352539,269.625061 
	C1118.546631,263.082977 1114.740723,256.540863 1110.855713,249.311356 
	C1105.536621,240.541794 1100.217651,231.772232 1094.892822,222.447769 
	C1094.633789,222.202759 1094.374878,221.957764 1094.059204,221.172958 
	C1093.705811,220.781845 1093.352417,220.390732 1092.942139,219.395309 
	C1092.627319,219.253922 1092.312500,219.112549 1091.424805,218.548920 
	C1084.380615,206.375366 1077.361572,194.186966 1070.237793,182.060211 
	C1069.736938,181.207642 1068.473389,180.306564 1067.542969,180.283066 
	C1061.327637,180.126160 1055.106445,180.201569 1048.967529,180.201569 
	C1048.967529,185.059158 1048.967529,188.529953 1048.733887,192.912521 
	C1048.679688,198.557861 1048.597168,204.203110 1048.576294,209.848572 
	C1048.470093,238.568146 1048.379761,267.287750 1048.107788,296.928101 
	C1048.107788,302.673584 1048.107788,308.419067 1048.107788,314.054199 
	C1056.546021,314.054199 1064.332886,314.054199 1072.781860,314.355133 
	C1076.633789,315.800812 1076.996338,313.411255 1076.993408,310.555359 
	C1076.973389,291.550812 1076.930298,272.546204 1076.988159,253.541855 
	C1076.997559,250.450668 1076.022827,248.744324 1072.477173,248.305832 
	C1072.580200,245.519928 1072.683228,242.734039 1073.581787,239.923233 
	C1075.641968,239.628296 1077.702148,239.333374 1080.045044,239.713516 
M988.018921,230.189545 
	C987.024780,237.577469 986.030640,244.965393 985.036499,252.353333 
	C984.777954,252.349182 984.519409,252.345047 984.260925,252.340897 
	C984.067871,248.435898 983.874817,244.530899 983.681763,240.625900 
	C983.272156,240.656372 982.862488,240.686844 982.452881,240.717316 
	C982.452881,264.950012 982.452881,289.182678 982.452881,313.992279 
	C984.785339,313.992279 986.902710,313.992279 989.762329,314.207916 
	C997.686829,314.207916 1005.611389,314.207916 1013.618774,314.207916 
	C1013.618774,269.409393 1013.618774,225.213150 1013.618774,180.698257 
	C1005.179810,180.698257 997.141174,180.698257 988.743103,180.698257 
	C988.743103,197.389847 988.743103,213.685486 988.018921,230.189545 
M311.986877,99.167656 
	C309.236084,95.590912 304.171661,94.032097 300.817108,95.993996 
	C299.933960,96.510490 299.585388,97.941032 298.475250,99.386284 
	C290.196808,107.525192 281.720917,115.474419 273.682281,123.843681 
	C258.356873,139.799408 243.181900,155.903107 228.155411,172.140564 
	C222.910721,177.807922 222.843613,182.786804 226.873856,189.263092 
	C228.100632,191.234436 229.163528,193.403183 230.771057,195.012451 
	C232.097687,196.340530 234.119339,197.798920 235.829514,197.794647 
	C258.644592,197.737747 281.460480,197.520187 304.273163,197.155411 
	C316.564148,196.958893 320.195068,193.150864 320.162567,180.749084 
	C320.104980,158.763794 319.803101,136.778748 319.830078,114.793877 
	C319.838104,108.273033 318.187775,103.015991 311.986877,99.167656 
M568.342285,202.002945 
	C574.804138,194.914856 581.265991,187.826767 588.265015,180.149460 
	C583.864868,180.149460 580.431458,180.149460 576.081726,179.951889 
	C573.083862,179.948380 570.058105,180.201157 567.094788,179.879379 
	C562.974915,179.432007 559.799927,180.499969 556.947876,183.669083 
	C551.844116,189.340393 546.382935,194.688995 541.100647,200.200790 
	C527.394958,214.501999 513.715515,228.828430 499.995667,243.116043 
	C498.374146,244.804703 496.566315,246.314499 493.746368,248.923553 
	C493.746368,225.006989 493.746368,202.765945 493.746368,180.368561 
	C485.142303,180.368561 477.104675,180.368561 469.135193,180.368561 
	C469.135193,225.233582 469.135193,269.774017 469.135193,314.793457 
	C476.224213,314.793457 482.860229,314.507019 489.456360,314.896149 
	C493.713989,315.147369 494.447052,313.523407 494.316742,309.730011 
	C493.996643,300.412384 494.051147,291.080292 494.070618,281.754272 
	C494.073517,280.361969 494.243317,278.502625 495.112091,277.653687 
	C501.831787,271.087555 508.742493,264.716919 515.707153,258.179535 
	C517.174377,260.199005 518.862915,262.812012 520.834778,265.190002 
	C533.686768,280.689056 546.510193,296.214294 559.611938,311.500488 
	C561.181763,313.332031 564.354004,314.643402 566.815613,314.696075 
	C573.958923,314.848755 581.119751,314.261414 588.270203,313.896088 
	C589.127625,313.852264 589.963501,313.387054 590.806030,313.118225 
	C571.133484,288.855194 551.680725,264.863220 532.147217,240.771561 
	C533.896362,238.390167 535.508789,236.194962 537.501587,233.450668 
	C542.667236,228.252518 547.832886,223.054382 553.603516,217.603409 
	C558.334656,212.500076 563.065735,207.396744 568.342285,202.002945 
M857.266296,268.072815 
	C857.266296,254.118301 857.266296,240.163803 857.266296,224.935745 
	C862.004089,230.144180 866.421448,234.549576 870.326904,239.369720 
	C890.016541,263.670959 909.567261,288.084869 929.203796,312.429291 
	C929.784607,313.149323 930.767944,313.993805 931.578003,314.009033 
	C938.320007,314.135681 945.065369,314.080872 951.835083,314.080872 
	C951.835083,269.242828 951.835083,225.018433 951.835083,180.676270 
	C943.736328,180.676270 935.978455,180.676270 927.141846,180.676270 
	C927.141846,210.338501 927.141846,239.627213 927.141846,268.915924 
	C926.506653,269.118011 925.871460,269.320068 925.236267,269.522156 
	C921.673462,264.810516 918.245483,259.989441 914.525330,255.405518 
	C894.911255,231.237579 875.236816,207.118515 855.521851,183.032883 
	C854.541016,181.834610 852.986328,180.298538 851.697266,180.297043 
	C845.456909,180.289871 839.216003,180.753738 832.549805,181.070908 
	C832.549805,225.805054 832.549805,269.881287 832.549805,313.989868 
	C840.951782,313.989868 849.294922,313.989868 857.280212,313.989868 
	C857.280212,298.648926 857.280212,283.828766 857.266296,268.072815 
M732.801880,209.733261 
	C719.692993,191.297226 701.899902,180.847168 679.330505,179.191574 
	C663.219482,178.009720 647.401733,179.302475 633.125488,188.094879 
	C589.704163,214.837112 590.054749,269.396881 620.668884,297.389160 
	C637.800293,313.053467 658.363586,318.794708 681.098145,315.934570 
	C738.200806,308.750641 758.346985,250.761749 732.801880,209.733261 
M1347.248657,287.188843 
	C1343.498291,278.864838 1339.754150,270.538055 1335.996460,262.217377 
	C1324.379517,236.493210 1312.741211,210.778763 1301.161621,185.037842 
	C1299.929688,182.299179 1298.578003,180.118637 1295.081299,180.199707 
	C1289.756470,180.323120 1284.426270,180.198639 1279.099121,180.256241 
	C1275.888428,180.290939 1273.461792,181.434830 1272.071899,184.698090 
	C1270.122192,189.276108 1267.691528,193.646851 1265.650146,198.188766 
	C1249.593628,233.912964 1233.575562,269.654449 1217.566528,305.399841 
	C1216.380371,308.048035 1215.356323,310.768768 1213.879761,314.377747 
	C1220.882202,314.377747 1226.896851,313.834534 1232.759766,314.544250 
	C1237.727173,315.145599 1240.095337,313.412659 1241.816162,309.096466 
	C1244.702393,301.857605 1248.049194,294.803223 1250.980225,287.581146 
	C1252.277466,284.384857 1254.081909,283.040741 1257.701904,283.074554 
	C1276.852539,283.253418 1296.007080,283.064209 1315.155884,283.323425 
	C1317.091675,283.349579 1319.900391,285.067688 1320.762695,286.777740 
	C1324.491577,294.173370 1327.516235,301.920929 1331.103271,309.393524 
	C1332.006470,311.275024 1333.963013,313.883087 1335.571899,313.984039 
	C1343.255737,314.466125 1350.986572,314.200134 1359.327271,314.200134 
	C1355.140747,304.773987 1351.382690,296.312347 1347.248657,287.188843 
M770.862427,223.499893 
	C770.862427,253.597321 770.862427,283.694733 770.862427,314.007538 
	C778.950867,314.007538 787.359497,314.007538 795.725281,314.007538 
	C795.725281,269.510834 795.725281,225.325684 795.725281,180.771484 
	C787.250305,180.771484 779.175171,180.771484 770.865479,180.771484 
	C770.865479,194.930893 770.865479,208.715378 770.862427,223.499893 
z"/>
<path fill="#FEFEFE" opacity="1.000000" stroke="none" 
	d="
M91.810265,66.936363 
	C92.577789,66.172508 93.966805,65.444649 94.013466,64.639053 
	C94.353821,58.762608 98.650475,58.947834 102.621712,58.936455 
	C128.602631,58.861980 154.583862,58.836494 180.564835,58.884205 
	C188.798920,58.899326 194.796295,64.445908 195.721863,72.670319 
	C195.944702,74.650307 195.920975,76.662743 195.935486,78.660789 
	C196.236710,120.146385 196.627014,161.631805 196.726944,203.117935 
	C196.744797,210.532761 198.770340,215.607956 205.276703,220.196808 
	C209.725464,223.334442 213.667938,224.011978 218.407120,224.008942 
	C251.897385,223.987549 285.387939,224.019073 318.877533,223.856216 
	C322.825775,223.837021 325.049164,225.037262 327.207336,228.494125 
	C334.809357,240.670639 336.541748,254.673874 340.429626,268.025635 
	C347.259888,291.482117 354.916016,314.711792 361.193756,338.311157 
	C366.103088,356.766418 369.552338,375.616394 373.386017,394.345093 
	C373.997131,397.330475 373.582611,400.669495 373.006195,403.725006 
	C371.723206,410.526276 368.421173,413.622955 361.520172,414.087555 
	C353.884003,414.601624 346.209503,414.648407 338.550385,414.697784 
	C320.223602,414.815948 301.896027,414.807098 283.568848,414.869690 
	C278.222290,414.887939 272.568542,411.006317 270.998077,405.826019 
	C261.274078,373.750854 251.598419,341.660980 241.959579,309.560150 
	C240.512085,304.739471 240.211655,299.340820 237.803284,295.106689 
	C235.301559,290.708405 231.562469,286.000427 227.178314,283.877197 
	C214.263092,277.622437 199.241318,287.281708 199.189590,301.521301 
	C199.106705,324.344818 199.572433,347.169861 199.680405,369.994843 
	C199.722168,378.822144 199.269882,387.651978 199.320801,396.479004 
	C199.366058,404.327362 197.267227,410.598175 188.116089,413.129700 
	C181.806870,413.209106 176.308334,413.346558 170.812927,413.267242 
	C146.175003,412.911682 121.537979,412.494415 96.900620,412.099426 
	C95.677513,411.268585 94.454399,410.437744 93.356171,409.202026 
	C93.333527,407.696014 93.186005,406.594910 93.063652,404.978363 
	C93.008377,337.670471 92.927933,270.877991 92.913040,203.612885 
	C92.982788,196.096420 92.986977,189.052597 93.007629,181.631378 
	C93.012123,180.498718 93.000168,179.743469 92.992371,178.573822 
	C92.992821,176.778137 92.989105,175.396851 93.001221,173.676849 
	C93.006203,172.886276 92.995361,172.434433 92.989136,171.515717 
	C93.051384,143.032242 93.109016,115.015625 93.402229,86.704887 
	C93.753822,80.958328 93.986511,75.503723 93.884476,70.055374 
	C93.864777,69.003120 92.535461,67.975395 91.810265,66.936363 
z"/>
<path fill="#FBFBFB" opacity="1.000000" stroke="none" 
	d="
M857.273254,268.540710 
	C857.280212,283.828766 857.280212,298.648926 857.280212,313.989868 
	C849.294922,313.989868 840.951782,313.989868 832.549805,313.989868 
	C832.549805,269.881287 832.549805,225.805054 832.549805,181.070908 
	C839.216003,180.753738 845.456909,180.289871 851.697266,180.297043 
	C852.986328,180.298538 854.541016,181.834610 855.521851,183.032883 
	C875.236816,207.118515 894.911255,231.237579 914.525330,255.405518 
	C918.245483,259.989441 921.673462,264.810516 925.236267,269.522156 
	C925.871460,269.320068 926.506653,269.118011 927.141846,268.915924 
	C927.141846,239.627213 927.141846,210.338501 927.141846,180.676270 
	C935.978455,180.676270 943.736328,180.676270 951.835083,180.676270 
	C951.835083,225.018433 951.835083,269.242828 951.835083,314.080872 
	C945.065369,314.080872 938.320007,314.135681 931.578003,314.009033 
	C930.767944,313.993805 929.784607,313.149323 929.203796,312.429291 
	C909.567261,288.084869 890.016541,263.670959 870.326904,239.369720 
	C866.421448,234.549576 862.004089,230.144180 857.266296,224.935745 
	C857.266296,240.163803 857.266296,254.118301 857.273254,268.540710 
z"/>
<path fill="#FBFCFC" opacity="1.000000" stroke="none" 
	d="
M732.974670,210.049866 
	C758.346985,250.761749 738.200806,308.750641 681.098145,315.934570 
	C658.363586,318.794708 637.800293,313.053467 620.668884,297.389160 
	C590.054749,269.396881 589.704163,214.837112 633.125488,188.094879 
	C647.401733,179.302475 663.219482,178.009720 679.330505,179.191574 
	C701.899902,180.847168 719.692993,191.297226 732.974670,210.049866 
M718.408813,249.422653 
	C718.331970,247.095795 718.340698,244.762436 718.164795,242.443085 
	C716.670166,222.733490 701.687378,205.922546 682.013367,201.835297 
	C660.170288,197.297394 640.247681,205.937027 630.547729,224.153824 
	C617.499756,248.658630 626.444458,279.135223 650.176575,289.984863 
	C678.209839,302.800842 716.193237,287.887970 718.408813,249.422653 
z"/>
<path fill="#FAFBFB" opacity="1.000000" stroke="none" 
	d="
M1347.436523,287.519775 
	C1351.382690,296.312347 1355.140747,304.773987 1359.327271,314.200134 
	C1350.986572,314.200134 1343.255737,314.466125 1335.571899,313.984039 
	C1333.963013,313.883087 1332.006470,311.275024 1331.103271,309.393524 
	C1327.516235,301.920929 1324.491577,294.173370 1320.762695,286.777740 
	C1319.900391,285.067688 1317.091675,283.349579 1315.155884,283.323425 
	C1296.007080,283.064209 1276.852539,283.253418 1257.701904,283.074554 
	C1254.081909,283.040741 1252.277466,284.384857 1250.980225,287.581146 
	C1248.049194,294.803223 1244.702393,301.857605 1241.816162,309.096466 
	C1240.095337,313.412659 1237.727173,315.145599 1232.759766,314.544250 
	C1226.896851,313.834534 1220.882202,314.377747 1213.879761,314.377747 
	C1215.356323,310.768768 1216.380371,308.048035 1217.566528,305.399841 
	C1233.575562,269.654449 1249.593628,233.912964 1265.650146,198.188766 
	C1267.691528,193.646851 1270.122192,189.276108 1272.071899,184.698090 
	C1273.461792,181.434830 1275.888428,180.290939 1279.099121,180.256241 
	C1284.426270,180.198639 1289.756470,180.323120 1295.081299,180.199707 
	C1298.578003,180.118637 1299.929688,182.299179 1301.161621,185.037842 
	C1312.741211,210.778763 1324.379517,236.493210 1335.996460,262.217377 
	C1339.754150,270.538055 1343.498291,278.864838 1347.436523,287.519775 
M1266.475708,251.966324 
	C1265.002563,256.304749 1263.529297,260.643188 1262.073120,264.931580 
	C1278.605591,264.931580 1294.515869,264.931580 1310.659668,264.931580 
	C1310.465820,264.017853 1310.428833,263.360168 1310.189453,262.786987 
	C1303.418213,246.575378 1296.687134,230.346375 1289.759277,214.201843 
	C1288.929321,212.267670 1287.012451,210.799988 1284.657837,207.994217 
	C1278.393188,223.190216 1272.605591,237.229065 1266.475708,251.966324 
z"/>
<path fill="#FBFBFB" opacity="1.000000" stroke="none" 
	d="
M537.121216,233.999756 
	C535.508789,236.194962 533.896362,238.390167 532.147217,240.771561 
	C551.680725,264.863220 571.133484,288.855194 590.806030,313.118225 
	C589.963501,313.387054 589.127625,313.852264 588.270203,313.896088 
	C581.119751,314.261414 573.958923,314.848755 566.815613,314.696075 
	C564.354004,314.643402 561.181763,313.332031 559.611938,311.500488 
	C546.510193,296.214294 533.686768,280.689056 520.834778,265.190002 
	C518.862915,262.812012 517.174377,260.199005 515.707153,258.179535 
	C508.742493,264.716919 501.831787,271.087555 495.112091,277.653687 
	C494.243317,278.502625 494.073517,280.361969 494.070618,281.754272 
	C494.051147,291.080292 493.996643,300.412384 494.316742,309.730011 
	C494.447052,313.523407 493.713989,315.147369 489.456360,314.896149 
	C482.860229,314.507019 476.224213,314.793457 469.135193,314.793457 
	C469.135193,269.774017 469.135193,225.233582 469.135193,180.368561 
	C477.104675,180.368561 485.142303,180.368561 493.746368,180.368561 
	C493.746368,202.765945 493.746368,225.006989 493.746368,248.923553 
	C496.566315,246.314499 498.374146,244.804703 499.995667,243.116043 
	C513.715515,228.828430 527.394958,214.501999 541.100647,200.200790 
	C546.382935,194.688995 551.844116,189.340393 556.947876,183.669083 
	C559.799927,180.499969 562.974915,179.432007 567.094788,179.879379 
	C570.058105,180.201157 573.083862,179.948380 576.540649,180.427979 
	C577.536316,182.753265 578.072937,184.602448 578.757935,186.962982 
	C577.189453,187.589050 575.573792,188.233963 573.604431,189.020035 
	C573.529846,187.538635 573.476074,186.470612 573.382751,184.616455 
	C569.998413,185.120529 565.869568,184.512268 563.852112,186.294296 
	C559.835632,189.842026 556.910522,194.653748 553.712585,199.072174 
	C553.174072,199.816193 553.087158,201.571503 553.599731,202.192459 
	C554.078247,202.772125 555.958923,202.936462 556.650574,202.457611 
	C558.651794,201.072235 560.323425,199.221085 562.204590,197.648636 
	C563.771729,196.338684 565.452148,195.164261 566.979004,194.008102 
	C567.317261,197.434937 567.557068,199.864197 567.796875,202.293442 
	C563.065735,207.396744 558.334656,212.500076 553.309204,217.379776 
	C553.200134,215.935913 553.385254,214.715683 553.723572,212.486282 
	C551.621826,213.852661 550.069946,214.490479 549.027710,215.604874 
	C545.015808,219.894699 540.995239,224.202774 537.383240,228.821060 
	C536.526611,229.916321 532.797241,232.128052 537.121216,233.999756 
z"/>
<path fill="#FCFCFD" opacity="1.000000" stroke="none" 
	d="
M312.008820,99.942360 
	C318.187775,103.015991 319.838104,108.273033 319.830078,114.793877 
	C319.803101,136.778748 320.104980,158.763794 320.162567,180.749084 
	C320.195068,193.150864 316.564148,196.958893 304.273163,197.155411 
	C281.460480,197.520187 258.644592,197.737747 235.829514,197.794647 
	C234.119339,197.798920 232.097687,196.340530 230.771057,195.012451 
	C229.163528,193.403183 228.100632,191.234436 226.873856,189.263092 
	C222.843613,182.786804 222.910721,177.807922 228.155411,172.140564 
	C243.181900,155.903107 258.356873,139.799408 273.682281,123.843681 
	C281.720917,115.474419 290.196808,107.525192 299.179260,99.197861 
	C303.925110,99.320412 307.966980,99.631386 312.008820,99.942360 
z"/>
<path fill="#FAFBFB" opacity="1.000000" stroke="none" 
	d="
M1166.732910,236.055023 
	C1164.720093,238.969604 1162.707397,241.884216 1160.371826,244.607452 
	C1159.821411,243.415588 1159.593994,242.415100 1159.229736,240.813766 
	C1156.881470,243.546066 1156.530640,244.995758 1160.142822,245.103668 
	C1158.665039,247.641464 1157.187256,250.179260 1155.103516,252.756454 
	C1152.887451,253.447998 1151.277344,254.100174 1149.667358,254.752319 
	C1150.512817,255.860550 1151.358398,256.968781 1152.203857,258.076996 
	C1151.366455,259.677765 1150.529175,261.278564 1149.249023,262.731995 
	C1147.538330,262.390930 1146.271484,262.054382 1145.001953,262.044037 
	C1143.759888,262.033936 1142.395142,262.774689 1141.292725,262.458618 
	C1137.068359,261.247437 1130.498779,263.591919 1127.884521,266.951721 
	C1126.785645,268.363892 1124.643066,268.963959 1122.975098,269.933289 
	C1128.870728,259.556305 1134.659180,249.116699 1140.685303,238.816162 
	C1151.458862,220.400925 1162.420410,202.095642 1173.185425,183.675568 
	C1174.834473,180.853851 1176.786499,179.853912 1180.045654,180.057098 
	C1185.132690,180.374252 1190.254028,180.141083 1195.788940,180.141083 
	C1195.788940,183.453049 1195.786377,185.737900 1195.789307,188.022766 
	C1195.840088,228.619278 1195.849243,269.215973 1196.018066,309.811981 
	C1196.032471,313.299927 1195.186035,314.480652 1191.575928,314.297668 
	C1185.603271,313.994995 1179.603027,314.236145 1173.000244,313.721710 
	C1172.421021,310.871826 1172.468262,308.548462 1172.488647,306.224854 
	C1172.697388,282.483582 1172.901855,258.742310 1173.450317,235.040009 
	C1174.791992,235.021561 1175.790527,234.964111 1176.789185,234.906647 
	C1175.564819,234.270813 1174.340576,233.634964 1173.042725,232.591156 
	C1172.969360,230.376343 1172.969360,228.569489 1172.969360,225.230560 
	C1171.126099,227.351059 1169.843506,228.383713 1169.155518,229.722015 
	C1168.128174,231.720047 1167.519653,233.933334 1166.732910,236.055023 
z"/>
<path fill="#FDFEFD" opacity="1.000000" stroke="none" 
	d="
M1048.967529,192.000778 
	C1048.967529,188.529953 1048.967529,185.059158 1048.967529,180.201569 
	C1055.106445,180.201569 1061.327637,180.126160 1067.542969,180.283066 
	C1068.473389,180.306564 1069.736938,181.207642 1070.237793,182.060211 
	C1077.361572,194.186966 1084.380615,206.375366 1091.815430,218.985931 
	C1092.404419,219.705872 1092.668701,219.898102 1092.999023,219.999634 
	C1093.352417,220.390732 1093.705811,220.781845 1094.039551,221.759033 
	C1094.008911,222.557510 1093.997681,222.769913 1093.660645,222.845184 
	C1091.961914,223.070084 1090.589111,223.432083 1089.216309,223.794067 
	C1090.263306,225.568588 1091.310425,227.343140 1092.859863,229.969162 
	C1093.402344,226.687576 1093.706055,224.850006 1094.232056,223.009033 
	C1094.454224,223.005600 1094.898560,223.002686 1094.898560,223.002686 
	C1100.217651,231.772232 1105.536621,240.541794 1110.521362,249.647797 
	C1108.337402,249.435684 1106.487671,248.887131 1103.596680,248.029755 
	C1103.757812,251.085190 1103.352173,253.748474 1104.124268,256.009460 
	C1106.099121,261.791595 1108.335205,267.522064 1110.994751,273.017670 
	C1112.410278,275.942657 1114.459473,279.024200 1117.067505,280.780365 
	C1119.742554,282.581635 1123.515503,282.670776 1126.684326,283.843170 
	C1129.994995,285.068054 1130.680908,288.530121 1127.729126,290.337158 
	C1125.374756,291.778534 1122.228882,291.913208 1119.447021,292.674622 
	C1117.567993,293.188965 1115.711426,293.784698 1113.844727,294.344025 
	C1105.784058,281.087738 1097.723267,267.831482 1089.921143,254.261429 
	C1093.810913,253.526047 1096.232056,252.528931 1093.254517,248.362503 
	C1092.305908,247.035172 1091.876587,245.347641 1091.115845,243.873337 
	C1087.826904,237.499374 1084.807251,230.949310 1080.963257,224.926849 
	C1080.081055,223.544601 1076.319092,223.808121 1073.887817,223.833542 
	C1073.558716,223.836975 1073.261597,226.887283 1072.870117,228.884216 
	C1072.813721,229.484406 1072.836670,229.727173 1072.693481,230.247528 
	C1072.567627,230.736969 1072.608154,230.948853 1072.487549,231.576065 
	C1072.479858,234.643646 1072.633057,237.295898 1072.786255,239.948135 
	C1072.683228,242.734039 1072.580200,245.519928 1072.416504,249.131683 
	C1072.276978,271.323090 1072.198364,292.688629 1072.119751,314.054199 
	C1064.332886,314.054199 1056.546021,314.054199 1048.107788,314.054199 
	C1048.107788,308.419067 1048.107788,302.673584 1048.579834,296.468262 
	C1050.332031,296.009674 1051.612427,296.010895 1052.925659,296.475922 
	C1052.958618,301.249146 1052.958618,305.558594 1052.958618,309.868011 
	C1053.268799,309.861267 1053.579102,309.854492 1053.889282,309.847717 
	C1053.889282,301.919220 1053.889282,293.990692 1053.924683,285.590881 
	C1053.640747,272.743439 1053.321411,260.367310 1053.052490,247.594345 
	C1053.398682,241.373672 1053.980469,235.547119 1053.925293,229.726593 
	C1053.834473,220.181458 1053.375610,210.638321 1052.966675,201.098846 
	C1052.869141,198.820740 1052.624390,196.472137 1051.917236,194.331085 
	C1051.589233,193.337906 1049.990234,192.764496 1048.967529,192.000778 
M1101.084839,243.546417 
	C1101.387817,244.187912 1101.690796,244.829407 1101.993652,245.470932 
	C1102.521118,244.610092 1103.048584,243.749268 1103.576050,242.888397 
	C1102.806274,242.887924 1102.036499,242.887451 1101.084839,243.546417 
z"/>
<path fill="#FAFAFA" opacity="1.000000" stroke="none" 
	d="
M770.863953,222.999878 
	C770.865479,208.715378 770.865479,194.930893 770.865479,180.771484 
	C779.175171,180.771484 787.250305,180.771484 795.725281,180.771484 
	C795.725281,225.325684 795.725281,269.510834 795.725281,314.007538 
	C787.359497,314.007538 778.950867,314.007538 770.862427,314.007538 
	C770.862427,283.694733 770.862427,253.597321 770.863953,222.999878 
z"/>
<path fill="#FCFCFC" opacity="1.000000" stroke="none" 
	d="
M988.743164,229.981125 
	C988.743103,213.685486 988.743103,197.389847 988.743103,180.698257 
	C997.141174,180.698257 1005.179810,180.698257 1013.618774,180.698257 
	C1013.618774,225.213150 1013.618774,269.409393 1013.618774,314.207916 
	C1005.611389,314.207916 997.686829,314.207916 989.376465,313.632111 
	C988.908081,285.364563 988.825623,257.672852 988.743164,229.981125 
z"/>
<path fill="#DCE4E9" opacity="1.000000" stroke="none" 
	d="
M92.984512,171.982574 
	C92.995361,172.434433 93.006203,172.886276 92.726624,173.899200 
	C92.620209,175.969589 92.804207,177.478897 92.988205,178.988220 
	C93.000168,179.743469 93.012123,180.498718 92.709625,181.904297 
	C91.982910,189.752304 91.570656,196.950012 91.144287,204.606613 
	C91.398659,222.517868 91.852669,239.969696 91.899971,257.422638 
	C92.028549,304.877869 91.973114,352.333557 92.053017,399.788971 
	C92.056221,401.691101 92.695541,403.592194 93.038483,405.493774 
	C93.186005,406.594910 93.333527,407.696014 93.200684,408.916199 
	C90.202187,405.895966 88.739899,402.483856 88.743515,398.097565 
	C88.810783,316.441742 88.722282,234.785782 88.716705,153.129868 
	C88.714935,127.133362 88.797005,101.136299 89.026215,75.141129 
	C89.050316,72.408066 90.333405,69.686104 91.421326,66.947678 
	C92.535461,67.975395 93.864777,69.003120 93.884476,70.055374 
	C93.986511,75.503723 93.753822,80.958328 93.049126,86.951782 
	C92.300163,88.295036 92.000534,89.097145 91.999794,89.899521 
	C91.975632,116.036705 91.966660,142.173950 92.023132,168.311035 
	C92.025780,169.535568 92.649857,170.758759 92.984512,171.982574 
z"/>
<path fill="#F9F9F9" opacity="1.000000" stroke="none" 
	d="
M1113.893311,294.684387 
	C1115.711426,293.784698 1117.567993,293.188965 1119.447021,292.674622 
	C1122.228882,291.913208 1125.374756,291.778534 1127.729126,290.337158 
	C1130.680908,288.530121 1129.994995,285.068054 1126.684326,283.843170 
	C1123.515503,282.670776 1119.742554,282.581635 1117.067505,280.780365 
	C1114.459473,279.024200 1112.410278,275.942657 1110.994751,273.017670 
	C1108.335205,267.522064 1106.099121,261.791595 1104.124268,256.009460 
	C1103.352173,253.748474 1103.757812,251.085190 1103.596680,248.029755 
	C1106.487671,248.887131 1108.337402,249.435684 1110.560913,249.991516 
	C1114.740723,256.540863 1118.546631,263.082977 1122.663818,269.779175 
	C1124.643066,268.963959 1126.785645,268.363892 1127.884521,266.951721 
	C1130.498779,263.591919 1137.068359,261.247437 1141.292725,262.458618 
	C1142.395142,262.774689 1143.759888,262.033936 1145.001953,262.044037 
	C1146.271484,262.054382 1147.538330,262.390930 1148.955566,262.903534 
	C1148.901001,263.726532 1148.697388,264.230621 1147.894531,264.927826 
	C1146.881714,266.130524 1146.468140,267.140167 1146.054443,268.149780 
	C1144.944336,270.336151 1143.834351,272.522522 1142.072998,274.915894 
	C1140.632568,276.798584 1139.843506,278.474274 1139.054443,280.150024 
	C1136.123291,285.129456 1133.489380,290.317017 1130.186157,295.036163 
	C1125.967407,301.063507 1118.393311,300.871979 1113.893311,294.684387 
z"/>
<path fill="#110F10" opacity="1.000000" stroke="none" 
	d="
M988.381042,230.085327 
	C988.825623,257.672852 988.908081,285.364563 989.005310,313.524292 
	C986.902710,313.992279 984.785339,313.992279 982.452881,313.992279 
	C982.452881,289.182678 982.452881,264.950012 982.452881,240.717316 
	C982.862488,240.686844 983.272156,240.656372 983.681763,240.625900 
	C983.874817,244.530899 984.067871,248.435898 984.260925,252.340897 
	C984.519409,252.345047 984.777954,252.349182 985.036499,252.353333 
	C986.030640,244.965393 987.024780,237.577469 988.381042,230.085327 
M985.570251,258.296631 
	C985.297302,258.010254 985.024353,257.723877 984.751404,257.437561 
	C984.633362,257.551117 984.406067,257.756653 984.412964,257.764832 
	C984.667419,258.066864 984.943481,258.350647 985.570251,258.296631 
z"/>
<path fill="#F9F9F9" opacity="1.000000" stroke="none" 
	d="
M1048.850708,192.456665 
	C1049.990234,192.764496 1051.589233,193.337906 1051.917236,194.331085 
	C1052.624390,196.472137 1052.869141,198.820740 1052.966675,201.098846 
	C1053.375610,210.638321 1053.834473,220.181458 1053.925293,229.726593 
	C1053.980469,235.547119 1053.398682,241.373672 1052.758545,247.891876 
	C1052.298340,260.499054 1052.169678,272.411804 1052.107422,284.324890 
	C1052.104492,284.881256 1052.695435,285.440735 1053.007202,286.453217 
	C1052.967285,289.942474 1052.930054,292.977295 1052.892822,296.012115 
	C1051.612427,296.010895 1050.332031,296.009674 1048.667847,296.007904 
	C1048.379761,267.287750 1048.470093,238.568146 1048.576294,209.848572 
	C1048.597168,204.203110 1048.679688,198.557861 1048.850708,192.456665 
z"/>
<path fill="#1F1E1F" opacity="1.000000" stroke="none" 
	d="
M1173.107300,235.001007 
	C1172.901855,258.742310 1172.697388,282.483582 1172.488647,306.224854 
	C1172.468262,308.548462 1172.421021,310.871826 1172.512451,313.658417 
	C1169.902344,314.261383 1168.895630,313.038940 1168.955933,310.247925 
	C1169.117188,302.794373 1169.267212,295.325317 1168.961792,287.881287 
	C1168.672119,280.823212 1167.745605,273.793091 1167.210815,266.742249 
	C1167.010864,264.106720 1166.927856,261.431335 1167.139160,258.802063 
	C1167.592407,253.162735 1168.447754,247.550964 1168.748779,241.907120 
	C1168.836426,240.264679 1167.605347,238.551880 1166.855835,236.463196 
	C1167.519653,233.933334 1168.128174,231.720047 1169.155518,229.722015 
	C1169.843506,228.383713 1171.126099,227.351059 1172.969360,225.230560 
	C1172.969360,228.569489 1172.969360,230.376343 1172.953369,232.920441 
	C1172.994141,234.105453 1173.050659,234.553238 1173.107300,235.001007 
z"/>
<path fill="#F9F9F9" opacity="1.000000" stroke="none" 
	d="
M568.069580,202.148193 
	C567.557068,199.864197 567.317261,197.434937 566.979004,194.008102 
	C565.452148,195.164261 563.771729,196.338684 562.204590,197.648636 
	C560.323425,199.221085 558.651794,201.072235 556.650574,202.457611 
	C555.958923,202.936462 554.078247,202.772125 553.599731,202.192459 
	C553.087158,201.571503 553.174072,199.816193 553.712585,199.072174 
	C556.910522,194.653748 559.835632,189.842026 563.852112,186.294296 
	C565.869568,184.512268 569.998413,185.120529 573.382751,184.616455 
	C573.476074,186.470612 573.529846,187.538635 573.604431,189.020035 
	C575.573792,188.233963 577.189453,187.589050 578.757935,186.962982 
	C578.072937,184.602448 577.536316,182.753265 576.998840,180.526764 
	C580.431458,180.149460 583.864868,180.149460 588.265015,180.149460 
	C581.265991,187.826767 574.804138,194.914856 568.069580,202.148193 
z"/>
<path fill="#1F1E1F" opacity="1.000000" stroke="none" 
	d="
M1072.450806,314.204651 
	C1072.198364,292.688629 1072.276978,271.323090 1072.524170,249.520706 
	C1076.022827,248.744324 1076.997559,250.450668 1076.988159,253.541855 
	C1076.930298,272.546204 1076.973389,291.550812 1076.993408,310.555359 
	C1076.996338,313.411255 1076.633789,315.800812 1072.450806,314.204651 
z"/>
<path fill="#F9F9F9" opacity="1.000000" stroke="none" 
	d="
M1072.949585,228.526764 
	C1073.261597,226.887283 1073.558716,223.836975 1073.887817,223.833542 
	C1076.319092,223.808121 1080.081055,223.544601 1080.963257,224.926849 
	C1084.807251,230.949310 1087.826904,237.499374 1091.115845,243.873337 
	C1091.876587,245.347641 1092.305908,247.035172 1093.254517,248.362503 
	C1096.232056,252.528931 1093.810913,253.526047 1089.768311,253.912964 
	C1086.252930,249.156723 1083.149048,244.435120 1079.865723,239.036438 
	C1077.875122,235.496506 1076.063721,232.633636 1074.238892,229.775726 
	C1074.225342,229.780701 1074.228027,229.753647 1074.125000,229.451187 
	C1073.664429,228.941406 1073.307007,228.734085 1072.949585,228.526764 
z"/>
<path fill="#9192A0" opacity="1.000000" stroke="none" 
	d="
M96.974518,412.415680 
	C121.537979,412.494415 146.175003,412.911682 170.812927,413.267242 
	C176.308334,413.346558 181.806870,413.209106 187.784027,413.249939 
	C186.622894,413.929596 184.989685,415.030151 183.339218,415.056671 
	C159.803040,415.434692 136.264526,415.667542 112.147552,415.443512 
	C107.682251,414.995178 103.795952,415.038666 99.909660,415.082184 
	C98.955910,414.298767 98.002151,413.515350 96.974518,412.415680 
z"/>
<path fill="#F9F9F9" opacity="1.000000" stroke="none" 
	d="
M537.311401,233.725220 
	C532.797241,232.128052 536.526611,229.916321 537.383240,228.821060 
	C540.995239,224.202774 545.015808,219.894699 549.027710,215.604874 
	C550.069946,214.490479 551.621826,213.852661 553.723572,212.486282 
	C553.385254,214.715683 553.200134,215.935913 553.006714,217.506195 
	C547.832886,223.054382 542.667236,228.252518 537.311401,233.725220 
z"/>
<path fill="#1F1E1F" opacity="1.000000" stroke="none" 
	d="
M311.997864,99.555008 
	C307.966980,99.631386 303.925110,99.320412 299.437317,98.980637 
	C299.585388,97.941032 299.933960,96.510490 300.817108,95.993996 
	C304.171661,94.032097 309.236084,95.590912 311.997864,99.555008 
z"/>
<path fill="#1F1E1F" opacity="1.000000" stroke="none" 
	d="
M1074.252441,229.770752 
	C1076.063721,232.633636 1077.875122,235.496506 1079.724365,238.698914 
	C1077.702148,239.333374 1075.641968,239.628296 1073.184082,239.935684 
	C1072.633057,237.295898 1072.479858,234.643646 1072.806152,231.408081 
	C1073.607910,230.473419 1073.930176,230.122086 1074.252441,229.770752 
z"/>
<path fill="#F9F9F9" opacity="1.000000" stroke="none" 
	d="
M1152.486938,257.910156 
	C1151.358398,256.968781 1150.512817,255.860550 1149.667358,254.752319 
	C1151.277344,254.100174 1152.887451,253.447998 1154.816528,252.928040 
	C1154.347046,254.621277 1153.558472,256.182312 1152.486938,257.910156 
z"/>
<path fill="#FEFEFE" opacity="1.000000" stroke="none" 
	d="
M100.175690,415.246796 
	C103.795952,415.038666 107.682251,414.995178 111.688309,415.292603 
	C110.502426,415.669250 109.196777,415.704926 107.263779,415.487732 
	C105.386864,415.391144 104.137299,415.547516 102.887726,415.703857 
	C102.072388,415.606384 101.257050,415.508911 100.175690,415.246796 
z"/>
<path fill="#FAFBFB" opacity="1.000000" stroke="none" 
	d="
M1139.327637,279.954834 
	C1139.843506,278.474274 1140.632568,276.798584 1141.787476,275.089264 
	C1141.302490,276.623688 1140.451660,278.191681 1139.327637,279.954834 
z"/>
<path fill="#FAFBFB" opacity="1.000000" stroke="none" 
	d="
M1146.324341,267.979431 
	C1146.468140,267.140167 1146.881714,266.130524 1147.649292,265.060974 
	C1147.533569,265.937073 1147.063843,266.873077 1146.324341,267.979431 
z"/>
<path fill="#9192A0" opacity="1.000000" stroke="none" 
	d="
M103.293793,415.853760 
	C104.137299,415.547516 105.386864,415.391144 106.872070,415.470459 
	C105.971748,415.805328 104.835800,415.904510 103.293793,415.853760 
z"/>
<path fill="#F9F9F9" opacity="1.000000" stroke="none" 
	d="
M1093.986450,222.982300 
	C1093.997681,222.769913 1094.008911,222.557510 1094.067871,222.028931 
	C1094.374878,221.957764 1094.633789,222.202759 1094.895752,222.725220 
	C1094.898560,223.002686 1094.454224,223.005600 1094.226196,223.001892 
	C1093.998169,222.998169 1093.986450,222.982300 1093.986450,222.982300 
z"/>
<path fill="#F9F9F9" opacity="1.000000" stroke="none" 
	d="
M1092.970581,219.697479 
	C1092.668701,219.898102 1092.404419,219.705872 1092.101929,219.197052 
	C1092.312500,219.112549 1092.627319,219.253922 1092.970581,219.697479 
z"/>
<path fill="#AEB2B8" opacity="1.000000" stroke="none" 
	d="
M93.063652,404.978363 
	C92.695541,403.592194 92.056221,401.691101 92.053017,399.788971 
	C91.973114,352.333557 92.028549,304.877869 91.899971,257.422638 
	C91.852669,239.969696 91.398659,222.517868 91.423508,204.572769 
	C92.093727,204.081848 92.470604,204.083679 92.847488,204.085510 
	C92.927933,270.877991 93.008377,337.670471 93.063652,404.978363 
z"/>
<path fill="#CAD0D4" opacity="1.000000" stroke="none" 
	d="
M92.989136,171.515717 
	C92.649857,170.758759 92.025780,169.535568 92.023132,168.311035 
	C91.966660,142.173950 91.975632,116.036705 91.999794,89.899521 
	C92.000534,89.097145 92.300163,88.295036 92.813545,87.245911 
	C93.109016,115.015625 93.051384,143.032242 92.989136,171.515717 
z"/>
<path fill="#CAD0D4" opacity="1.000000" stroke="none" 
	d="
M92.913040,203.612885 
	C92.470604,204.083679 92.093727,204.081848 91.437622,204.113861 
	C91.570656,196.950012 91.982910,189.752304 92.693169,182.281693 
	C92.986977,189.052597 92.982788,196.096420 92.913040,203.612885 
z"/>
<path fill="#CAD0D4" opacity="1.000000" stroke="none" 
	d="
M92.992363,178.573822 
	C92.804207,177.478897 92.620209,175.969589 92.710800,174.237915 
	C92.989105,175.396851 92.992821,176.778137 92.992363,178.573822 
z"/>
<path fill="#020102" opacity="1.000000" stroke="none" 
	d="
M718.372375,249.900055 
	C716.193237,287.887970 678.209839,302.800842 650.176575,289.984863 
	C626.444458,279.135223 617.499756,248.658630 630.547729,224.153824 
	C640.247681,205.937027 660.170288,197.297394 682.013367,201.835297 
	C701.687378,205.922546 716.670166,222.733490 718.164795,242.443085 
	C718.340698,244.762436 718.331970,247.095795 718.372375,249.900055 
z"/>
<path fill="#070607" opacity="1.000000" stroke="none" 
	d="
M1266.646851,251.617126 
	C1272.605591,237.229065 1278.393188,223.190216 1284.657837,207.994217 
	C1287.012451,210.799988 1288.929321,212.267670 1289.759277,214.201843 
	C1296.687134,230.346375 1303.418213,246.575378 1310.189453,262.786987 
	C1310.428833,263.360168 1310.465820,264.017853 1310.659668,264.931580 
	C1294.515869,264.931580 1278.605591,264.931580 1262.073120,264.931580 
	C1263.529297,260.643188 1265.002563,256.304749 1266.646851,251.617126 
M1287.602661,261.985138 
	C1288.066162,261.864563 1288.529541,261.744019 1288.993042,261.623444 
	C1288.984375,261.367767 1288.975830,261.112122 1288.967285,260.856445 
	C1281.650391,260.856445 1274.333374,260.856445 1267.016479,260.856445 
	C1267.016235,261.235443 1267.015869,261.614441 1267.015625,261.993439 
	C1273.606323,261.993439 1280.197144,261.993439 1287.602661,261.985138 
z"/>
<path fill="#F9F9F9" opacity="1.000000" stroke="none" 
	d="
M1160.083740,245.086060 
	C1156.530640,244.995758 1156.881470,243.546066 1159.229736,240.813766 
	C1159.593994,242.415100 1159.821411,243.415588 1160.076416,244.789474 
	C1160.104004,245.162872 1160.024780,245.068451 1160.083740,245.086060 
z"/>
<path fill="#F9F9F9" opacity="1.000000" stroke="none" 
	d="
M1173.450317,235.040009 
	C1173.050659,234.553238 1172.994141,234.105453 1173.026855,233.328400 
	C1174.340576,233.634964 1175.564819,234.270813 1176.789185,234.906647 
	C1175.790527,234.964111 1174.791992,235.021561 1173.450317,235.040009 
z"/>
<path fill="#DCE4E9" opacity="1.000000" stroke="none" 
	d="
M1053.009766,285.998779 
	C1052.695435,285.440735 1052.104492,284.881256 1052.107422,284.324890 
	C1052.169678,272.411804 1052.298340,260.499054 1052.708008,248.288696 
	C1053.321411,260.367310 1053.640747,272.743439 1053.705566,285.571625 
	C1053.451172,286.023682 1053.009766,285.998779 1053.009766,285.998779 
z"/>
<path fill="#CAD0D4" opacity="1.000000" stroke="none" 
	d="
M1053.007202,286.453217 
	C1053.009766,285.998779 1053.451172,286.023682 1053.670166,286.042908 
	C1053.889282,293.990692 1053.889282,301.919220 1053.889282,309.847717 
	C1053.579102,309.854492 1053.268799,309.861267 1052.958618,309.868011 
	C1052.958618,305.558594 1052.958618,301.249146 1052.925781,296.475922 
	C1052.930054,292.977295 1052.967285,289.942474 1053.007202,286.453217 
z"/>
<path fill="#F9F9F9" opacity="1.000000" stroke="none" 
	d="
M1094.004028,223.005310 
	C1093.706055,224.850006 1093.402344,226.687576 1092.859863,229.969162 
	C1091.310425,227.343140 1090.263306,225.568588 1089.216309,223.794067 
	C1090.589111,223.432083 1091.961914,223.070084 1093.660645,222.845184 
	C1093.986450,222.982300 1093.998169,222.998169 1094.004028,223.005310 
z"/>
<path fill="#F9F9F9" opacity="1.000000" stroke="none" 
	d="
M1101.175781,243.216705 
	C1102.036499,242.887451 1102.806274,242.887924 1103.576050,242.888428 
	C1103.048584,243.749268 1102.521118,244.610092 1101.993652,245.470917 
	C1101.690796,244.829407 1101.387817,244.187912 1101.175781,243.216705 
z"/>
<path fill="#000000" opacity="1.000000" stroke="none" 
	d="
M1074.238892,229.775726 
	C1073.930176,230.122086 1073.607910,230.473419 1072.967041,230.992737 
	C1072.608154,230.948853 1072.567627,230.736969 1073.041504,230.230957 
	C1073.779785,229.875763 1074.003906,229.814697 1074.228027,229.753647 
	C1074.228027,229.753647 1074.225342,229.780701 1074.238892,229.775726 
z"/>
<path fill="#1F1E1F" opacity="1.000000" stroke="none" 
	d="
M1074.125000,229.451187 
	C1074.003906,229.814697 1073.779785,229.875763 1073.207764,229.953384 
	C1072.836670,229.727173 1072.813721,229.484406 1072.870117,228.884201 
	C1073.307007,228.734085 1073.664429,228.941406 1074.125000,229.451187 
z"/>
<path fill="#000000" opacity="1.000000" stroke="none" 
	d="
M985.393433,258.466766 
	C984.943481,258.350647 984.667419,258.066864 984.412964,257.764832 
	C984.406067,257.756653 984.633362,257.551117 984.751404,257.437531 
	C985.024353,257.723877 985.297302,258.010254 985.393433,258.466766 
z"/>
<path fill="#1F1E1F" opacity="1.000000" stroke="none" 
	d="
M1287.195312,261.989288 
	C1280.197144,261.993439 1273.606323,261.993439 1267.015625,261.993439 
	C1267.015869,261.614441 1267.016235,261.235443 1267.016479,260.856445 
	C1274.333374,260.856445 1281.650391,260.856445 1288.967285,260.856445 
	C1288.975830,261.112122 1288.984375,261.367767 1288.993042,261.623444 
	C1288.529541,261.744019 1288.066162,261.864563 1287.195312,261.989288 
z"/>
</svg>